<?xml version="1.0" standalone="no"?>
<svg viewBox="0 0 200 200" xmlns="http://www.w3.org/2000/svg">
  <path fill="#FA4D56" d="M33.3,-53.8C47.5,-49.5,66.5,-49.4,70.3,-41.1C74.1,-32.9,62.8,-16.4,61.4,-0.8C60,14.8,68.5,29.6,64.6,37.7C60.7,45.8,44.4,47.2,31.5,49.9C18.7,52.6,9.4,56.7,-0.5,57.6C-10.4,58.5,-20.8,56.2,-33.1,53.2C-45.4,50.2,-59.6,46.4,-64.4,37.4C-69.2,28.4,-64.5,14.2,-59.8,2.7C-55.2,-8.8,-50.5,-17.6,-48.6,-31.7C-46.8,-45.7,-47.7,-65,-40.1,-73.2C-32.4,-81.3,-16.2,-78.3,-3.3,-72.5C9.5,-66.7,19.1,-58.1,33.3,-53.8Z" transform="translate(100 100)" />
</svg>
