<?xml version="1.0" standalone="no"?>
<svg viewBox="0 0 200 200" xmlns="http://www.w3.org/2000/svg">
  <path fill="#F1C21B" d="M41.5,-71.7C54.1,-64.7,64.6,-54.1,71,-41.5C77.4,-28.9,79.7,-14.5,78.5,-0.7C77.2,13.1,72.6,26.1,66.1,38.6C59.6,51.1,51.4,62.9,40.1,69.7C28.8,76.5,14.4,78.2,0,78.2C-14.3,78.1,-28.7,76.3,-39.9,69.5C-51.1,62.6,-59.3,50.8,-67.9,38.4C-76.5,25.9,-85.7,13,-87,-0.8C-88.4,-14.6,-82,-29.1,-72.9,-40.6C-63.7,-52.1,-51.8,-60.6,-39.2,-67.5C-26.6,-74.4,-13.3,-79.8,0.6,-80.8C14.5,-81.9,29,-78.6,41.5,-71.7Z" transform="translate(100 100)" />
</svg>
