<?xml version="1.0" standalone="no"?>
<svg viewBox="0 0 200 200" xmlns="http://www.w3.org/2000/svg">
  <path fill="#77B978" d="M38.9,-59C53,-51.5,68.7,-45,76,-33.4C83.3,-21.8,82.3,-5.1,76.6,8.6C70.9,22.3,60.6,33,50.6,42.8C40.5,52.7,30.7,61.8,19.1,65.5C7.5,69.1,-5.8,67.2,-19.7,64.4C-33.6,61.6,-48,57.8,-57.8,48.8C-67.6,39.8,-72.8,25.5,-72.2,12C-71.6,-1.5,-65.3,-14.2,-59.5,-27.3C-53.7,-40.3,-48.4,-53.7,-38.5,-63.1C-28.7,-72.5,-14.4,-78.1,-1,-76.6C12.4,-75,24.9,-66.5,38.9,-59Z" transform="translate(100 100)" />
</svg>
