<?xml version="1.0" standalone="no"?>
<svg viewBox="0 0 200 200" xmlns="http://www.w3.org/2000/svg">
  <path fill="#08BDBA" d="M47.7,-60.3C61.9,-55.3,73.6,-41.5,75.6,-26.6C77.7,-11.7,70.1,4.3,64.6,20.9C59.1,37.5,55.7,54.7,45.2,60.7C34.8,66.6,17.4,61.3,0.2,61C-17,60.7,-34.1,65.5,-44.3,59.5C-54.5,53.5,-57.8,36.7,-62.2,20.8C-66.7,4.9,-72.1,-10.2,-70.7,-25.6C-69.3,-41,-61,-56.8,-48.1,-62.2C-35.2,-67.6,-17.6,-62.5,-0.4,-61.9C16.7,-61.4,33.5,-65.2,47.7,-60.3Z" transform="translate(100 100)" />
</svg>
