<?xml version="1.0" standalone="no"?>
<svg viewBox="0 0 200 200" xmlns="http://www.w3.org/2000/svg">
  <path fill="#08BDBA" d="M45,-66.9C59.4,-60.7,73.1,-50.2,79.8,-36.2C86.5,-22.3,86.2,-5,81.9,10.4C77.5,25.8,69.2,39.3,59.5,52.9C49.8,66.6,38.8,80.5,24.1,87C9.5,93.5,-8.7,92.7,-24,86.1C-39.2,79.6,-51.4,67.4,-60.7,54.1C-70,40.7,-76.4,26.3,-80,10.7C-83.6,-5,-84.3,-21.9,-79.1,-37.3C-73.9,-52.6,-62.7,-66.5,-48.6,-72.8C-34.4,-79.2,-17.2,-78.1,-1,-76.6C15.2,-75.1,30.5,-73.1,45,-66.9Z" transform="translate(100 100)" />
</svg>
